<?xml version="1.0" encoding="UTF-8"?>
<svg id="Layer_2" data-name="Layer 2" xmlns="http://www.w3.org/2000/svg" viewBox="0 0 653.93 169.81">
  <defs>
    <style>
      .cls-1 {
        fill: #007bff;
      }

      .cls-2 {
        fill: #aa4fec;
      }

      .cls-3 {
        fill: #ff7000;
      }

      .cls-4 {
        fill: #3efd91;
      }

      .cls-5 {
        fill: #f93083;
      }

      .cls-6 {
        fill: #00e5ff;
      }

      .cls-7 {
        fill: #ffc301;
      }
    </style>
  </defs>
  <g id="Layer_1-2" data-name="Layer 1">
    <g>
      <path class="cls-1" d="M331.91,47.96c4.01-3.34,17.07-16.66,20.85-16.45,1.56.09,10.55,8.26,12.11,10.03,1.65,1.88,4.04,7.74,5.96,7.35l28.63-20.05c2.2-1.22,4.66-.74,6.69.66,7.38,6.61,15.14,12.76,23.1,18.6,5.55,4.89,3.62,6.84,1.54,12.89,2.78,18.87-.31,42.35,2.9,60.65.53,3.03,11.2,5.5,1.65,12.89-2.97,2.42-18.01,15.26-19.98,15.35-2.11.1-18.48-11.65-20.41-13.9-3.95-4.6-.91-3.68-.56-4.52.19-.45-.58-1.19-.41-1.45,1.27-1.99,5.6-4.42,5.17-7.66l-2.93-55.6c-.49-3.07-10.17-8.27-12.48-8.62-2.48-.38-9.49,3.45-11.57,5.23-3.07-1.75-3.54,2.57-3.66,4.5-.7,12.08.7,40.93,2.54,52.92.37,2.38.57,2.59,2.15,4.21.32.32.65.63,1.01.92.98.95,1.41,2.7,2.42,3.48,1.52,1.18,4.26-.9,2.38,5.94-8.25,5.52-13.86,16.21-23.69,18.47-.33-.04-.69.12-.96.05l-18.91-12.58c-.91-.89-2.51-2.17-3.02-2.75-2.17-7.77,7.03-8.1,7-15.25-2.76-17.58.56-40.75-2.86-57.64-1.58-7.8-14.1-8.35-4.64-17.67Z"/>
      <path class="cls-6" d="M466.45.05c.31-.03.65-.05.96-.05,16.44,9.77,30.47,21.31,46.76,31.05,7.57,5.4,18.65,15.11,26.93,18.41.65.26,1.32.69,1.97.87,1.2,1.27,1.92,2.38,2.17,4.18,1.92,13.45,3.23,41.3,2.64,54.9-.14,3.35-.24,4.35-2.67,6.77-7.61,7.59-21.6,15.17-30.4,21.6-.58.43-.86,1.84-1.75,2.49-9.97,7.21-10.88,10.69-23.87,6.33-7.66-2.57-23.67-9.07-30.48-13-3.9-2.25-7.43-3.63-7.45-8.5,0-.31-.09-.66-.05-.96,2.19-1.16,2.51-3.19,2.65-5.41.92-14.37-1.51-35.98-2.43-51.01-.25-4.07-2.69-5.38.44-9.64,1.35-1.84,3.62-2.49,4.62-4.54,1.24-1,3.08-1.9,4.67-3.12,2.68-1.74,17.73-11.17,18.49-12.6,1.7-3.2-4.34-3.91-6.82-5.31-5.17-2.92-10.94-7.31-15.94-10.8-11.57-9-.48-13.72,5.78-20.98,1.14-.91,2.5-.54,3.78-.68ZM481.49,52.33c-.2.55-.77.9-.87,1.97-.24,2.57.39,5.9.42,8.65,0,.32.04.64.05.96.07,2.88.3,5.77.42,8.65.01.32.03.64.05.96.06,1.28.12,2.56.18,3.85.04.66,1,.85,1.01.92.03.64.06,1.28.09,1.92,0,.07-.94.34-.92,1.01.05,1.28.16,2.56.18,3.85.04,2.06-.39,5.49,1.29,6.68.27,4.75.18,9.71.69,14.42.01.12-.18.06.05.96.73,2.93.97,4.18,4.12,5.58,1.1,1.04,1.82,1.17,2.98,1.78,3.98,4.51,7.78,5.81,13.09,8.16.75.33.9,1.59,1.57,1.7,7.4,1.27,9.98-1.49,10.46-8.66,1-14.91-2.75-32.68-2.57-47.81-1.85-6.63-6.95-6.58-11.5-9.49-4.49-2.87-8.2-5.32-13.08-8.02-1.48-.82-1.38-4.03-5.96-1.51-1.56.86-1.3,2.24-1.74,3.46Z"/>
      <path class="cls-7" d="M26.11,21.22c4.91-3.24,10.25-6.22,15.09-9.53,5.17-3.53,11.58-11.32,17.97-10.16,4.69.85,13.21,8.19,17.54,11.04,3.08,2.03,15.9,8.5,16.13,11.69.11,1.52-.5,3.14-1.39,4.38s-15.11,14.32-16.54,15.31c-1.31.92-4.78,2.62-6.17,2.22-.46-.13-5.05-6.23-6.14-7.41-1.61-5.22-6.4-8.32-11.91-7.14l1.43,29.8c5.27-2.35,9.93-.57,14.86-.68,4.68-.1,16.65-1.8,20.09-.86,3.04.83,1.59,4.85-.02,6.6-4.09,4.95-7.64,11.57-11.76,15.98l-22.16.1c1.85,16.64.31,35.04,2.44,51.47.39,3,.6,3.67,2.26,6.12.21.31.69.62,1.01.92,1.55,1.42,2.3,2.74,4.95,2.65,2.56,2.97,2.96,4.92.41,8.19-5.14,2.32-17.78,17.44-21.87,17.89-2.83.31-24.16-14.4-25.11-16.85-.41-1.06-.54-2.94-.4-4.08,1.12-.96,7.33-7.98,7.3-8.54l-2.7-56.24c-4.89-1.89-8.91.11-13.46.65-.63.08-1.29.04-1.92.09-1.92.14-3.86.16-5.77.28-1.93-1.74,7.1-21.24,10.4-22.25,3.15-.97,6.48-.61,9.7-.88-1.48-4.7.93-12.65-.01-16.62-1.22-5.18-7.77-7.72-7.96-12.42-.22-5.07,4.49-2.65,6.26-6.54,2.91-1.72,4.92-3.5,7.46-5.18Z"/>
      <path class="cls-4" d="M652.26,36.4c-.7,1.13-2.51,3.34-3.61,4.99-4.68,3.3-8.8,9.14-11.85,14.06-1.04.88-2.64,2.21-3.71,3.07-8.28-.4-30.73-15.06-37.62-13.39-1.67.41-2.32,2.74-3.31,3.8-.68.73-1.16.97-1.83,2.02-.19.29-1.34.42-1.65,1.67-2.83,11.36,8.16,10.53,15.05,13.23,8.98,3.51,19.46,7.38,28.56,11.28,10.93,4.69,11.85,7.85,13.24,19.84,1.43,12.28.63,17.49-9.39,25.01-4.2,3.28-26.6,21.31-29.38,21.62-3.77.42-25.44-7.21-31.66-8.58-3.04-.67-17.67-2.38-18.5-2.91-1.24-.8-1.37-3.91-1.18-5.29,3.47-3.59,7.11-7.3,9.06-12,2.41-2.67,4.87-5.44,7.32-8.06,5.3-3.29,10.74,1.98,15.6,3.57,4.48,1.47,20.33,6.67,23.8,6.07,6.11-1.05,7.91-11.84,4.25-15.69-1.94-2.04-22.76-8.71-27.08-10.17-.28-.1-.68.14-.96.05-5.82-3.89-13.86-5.74-20.61-7.68-.29-.08-.67.13-.96.05-.38-1.4-2.72-1.47-3.03-2.46-.74-2.4-1.1-16.72-.93-19.98.28-5.31,1.78-8.39,5.18-12.31,1.82-1.5,3.72-2.73,5.58-4.12,4.72-3.54,10.23-6.55,13.91-11.27,4.63-3.61,7.92-5.94,12.04-10.22,1.85-1.34,3.81-1.28,5.97-1.04,11.58,1.32,23.44,7.87,36.33,8.63,5.72.34,17.39-3.56,11.37,6.21Z"/>
      <path class="cls-2" d="M251.38,56.65c5.15-4.23,10.8-8.72,15.83-12.72,2.61-2.08,13.4-11.51,14.98-12.18,8.09-3.46,7.74.68,11.23,4.48,7.64,8.32,14.66,17.06,22.75,25.02.32.32.68.61,1.01.92l4.08,4.62c.13.25-.08.68.05.96.97,2.24,3.48,4.83,1.3,7.16l-43.07,30.49c-4.39,4.16-2.44,13.01,2.27,15.97.81.51,2.29-.05,3.21.52,4.37,2.67,8.98,5.87,12.92,8.71,5.42.33,15.82-14.02,22.16-7.86.3,1.04.02,5.92-1.03,6.81-9.39,8.48-18.77,17.08-28.25,25.43-9.51.95-17.84-5.8-25.8-9.56-4.74-2.24-11.08-2.97-15.17-7.03-1.39-3.62.71-15.3.66-20.02,0-.32-.04-.64-.05-.96-.13-9.89-.93-19.92-1.43-29.8-.1-1.92-.17-3.85-.28-5.77-.09-1.6-.12-3.21-.23-4.81-.02-.32-.02-.64-.05-.96-.08-.94.02-1.99-.14-2.88-.14-.75-.46-1.39-1.05-1.88-1.37-3.9-3.98-6.69-.51-10.58,1.56-1.31,3.13-2.85,4.62-4.08ZM276.26,93.03c3.15-.78,19.18-11.06,19.31-12.94.15-2.1-13.51-17.23-16.03-19.52-1.72-1.57-5.03-3.94-4.83.26l1.55,32.21Z"/>
      <path class="cls-3" d="M119.89,47.55l5.33.71c4.77,6.02,9.31,10.53,12.44,17.71,5.29-2.02,8.57-6.9,12.5-10.24,2.63-2.24,8.75-8.3,11.58-8.26,4.98.08,20.06,18.68,19.97,23.55-.1,4.83-15.62,17.81-19.08,22.28-5.07,1.52-9.32-7-13.09-10.56-4.53-4.28-4.73-4.14-11.73-3.3,1.94,9.02.05,52.64,4,57.4.6.72,2.17.65,2.67,1.07,8.14,6.84,5.94,7.38-.27,14.47l-4.58,5.04c-.18.17-.77-.12-.96.05-2.08,1.81-4.21,3.52-5.49,6.05-.24.13-.66-.07-.96.05-10.98,4.05-17.34-8.6-27.52-11.2-5.7-6.67-.47-7.72,2.33-11.68,1.32-1.86,1.7-3.06,2.65-4.95.46-.13.87-.55.92-1.01.55-5.74-.71-14.96-1.02-21.15-.02-.32-.03-.64-.05-.96-.03-.64-.06-1.28-.09-1.92-.02-.32-.03-.64-.05-.96-.3-6.27-.41-13.05-.92-19.23-.08-.96-.03-1.93-.14-2.88-1.4-12.39-9.29-12.73-10.24-16.5-.76-3.05,3.97-8.24,6.06-10.28,4.74-4.64,11.29-8.1,15.74-13.28Z"/>
      <path class="cls-5" d="M222.4,155.37c-2.74,2.21-4.43,5-8.44,3.77-1.5-.46-18.26-11.1-19.58-12.4-2.81-2.77-2.65-3.88-1.66-7.29l6.31-8.52c-2.25-16.92.2-37.35-2.55-53.84-.78-4.67-5.01-7.94-9.16-9.66-.09-.28.03-.64-.05-.96l1.74-3.94c.35-.28.6-.76.92-1.01,2.91-2.28,15.88-12.42,18.19-12.53,4.4-.21,5.67,3.89,7.95,5.51,1.3.92,3.05.98,4.5,2.13,7.44,5.87,3.73,6.5,4.37,13.32.21,2.28,1.23,4.35,1.41,6.64.73,9.37.83,50.26,4.96,55.28,2.27,2.75,9.59,4.85,5.46,10.34-1.83,2.42-11.51,10.84-14.38,13.15Z"/>
      <path class="cls-5" d="M187.86,18.26c.97-1.03,5.32-3.51,6.97-5.16,5.46-5.45,3.91-9.37,14.02-3.5,1.04.6,11.27,8.98,11.71,9.6,1.14,1.62,1.91,4.25.89,6.12-1.56,2.85-14.93,10.04-17.14,14.32-8.83,2.41-12.2-6.96-18.6-10.89-1.4-2.15.47-8.71,2.15-10.49Z"/>
    </g>
  </g>
</svg>